Results
version=1
nRows=14
nColumns=24
inDegrees=yes
endheader
time	pelvis_tilt	pelvis_list	pelvis_rotation	pelvis_tx	pelvis_ty	pelvis_tz	hip_flexion_r	hip_adduction_r	hip_rotation_r	knee_angle_r	ankle_angle_r	subtalar_angle_r	mtp_angle_r	hip_flexion_l	hip_adduction_l	hip_rotation_l	knee_angle_l	ankle_angle_l	subtalar_angle_l	mtp_angle_l	lumbar_extension	lumbar_bending	lumbar_rotation
      1.50033333	     -7.70299077	      5.35455208	     -0.73800666	      0.38053580	      0.89845813	      0.31098615	     23.42498724	    -10.08303125	     -9.09604883	    -69.10486109	      3.90898915	      5.89886055	     10.93696061	     18.61721889	      9.06466525	     -4.55743606	    -18.08228139	      7.91344990	     -6.21654024	      4.56944912	      4.46739128	     -9.97175630	      3.48444451
      1.50450000	     -7.64942650	      5.22174479	     -0.45577813	      0.38562750	      0.89961562	      0.31049280	     23.91661063	     -9.95063244	     -9.28747641	    -68.56556109	      4.46551131	      5.62889848	     10.81824375	     17.90728787	      9.04506764	     -4.21604522	    -17.52042937	      7.89540262	     -6.12463688	      4.58708200	      4.38217690	     -9.87163752	      3.11763612
      1.50866667	     -7.63165255	      5.08648667	     -0.15910738	      0.39069056	      0.90066673	      0.30998569	     24.43867548	     -9.82381888	     -9.49533731	    -67.98876997	      5.03913501	      5.34375191	     10.77167563	     17.26089047	      9.00867033	     -3.92102050	    -17.00553822	      7.87052653	     -5.94864466	      4.59591461	      4.35759383	     -9.76929074	      2.92424268
      1.51283333	     -7.51849006	      4.94157293	      0.13312554	      0.39578230	      0.90188605	      0.30946438	     24.82922750	     -9.68773474	     -9.70194093	    -67.33095568	      5.48587359	      5.10480774	     10.62740594	     16.46148616	      8.97610903	     -3.50400030	    -16.38647010	      7.84643364	     -5.95034331	      4.60997490	      4.18500428	     -9.64947130	      2.34975815
      1.51700000	     -7.45269661	      4.79875843	      0.44020947	      0.40083643	      0.90297510	      0.30893158	     25.26431589	     -9.56155940	     -9.92041511	    -66.63941325	      5.95741225	      4.85942491	     10.47715266	     15.73962651	      8.93289415	     -3.12018996	    -15.81411882	      7.80213167	     -5.89363686	      4.62324049	      4.08542140	     -9.53627389	      1.94238329
      1.52116667	     -7.37491626	      4.64751523	      0.75413934	      0.40587841	      0.90404440	      0.30839781	     25.67004964	     -9.42920355	    -10.14615643	    -65.89700032	      6.39503672	      4.61391061	     10.34292192	     15.00966010	      8.87047657	     -2.74560921	    -15.24893757	      7.77365531	     -5.80941097	      4.63354876	      3.97020544	     -9.41556405	      1.56625380
      1.52533333	     -7.29553155	      4.50116316	      1.07146151	      0.41091151	      0.90507633	      0.30785564	     26.06281459	     -9.30736535	    -10.37361347	    -65.11140013	      6.79793036	      4.37288119	     10.19261035	     14.27878995	      8.80752043	     -2.36153882	    -14.67968010	      7.73184449	     -5.74677689	      4.64238024	      3.85363391	     -9.29089718	      1.15216777
      1.52950000	     -7.23591609	      4.37043327	      1.40078314	      0.41591331	      0.90602328	      0.30729954	     26.47018332	     -9.20980647	    -10.60139918	    -64.29643743	      7.19944113	      4.14891436	      9.92160006	     13.56855087	      8.75926889	     -1.94077509	    -14.09805910	      7.63769337	     -5.74366280	      4.65250001	      3.75860167	     -9.20781111	      0.65691201
      1.53366667	     -7.14740124	      4.22213856	      1.72561394	      0.42092540	      0.90698249	      0.30675311	     26.82441947	     -9.09352118	    -10.83784030	    -63.41965830	      7.53553153	      3.91216834	      9.64835542	     12.83494206	      8.67680372	     -1.56094005	    -13.53307673	      7.59639379	     -5.68327697	      4.66148441	      3.64040961	     -9.08102486	      0.25602162
      1.53783333	     -7.04969721	      4.06148594	      2.03792446	      0.42591659	      0.90791079	      0.30624040	     27.15712252	     -8.95386454	    -11.05702938	    -62.49031044	      7.80735333	      3.67546127	      9.50616789	     12.10306446	      8.56498738	     -1.21124626	    -12.98709972	      7.60803235	     -5.56432636	      4.66729020	      3.50458706	     -8.92919496	     -0.04477407
      1.54200000	     -6.96186834	      3.91562968	      2.36302944	      0.43090924	      0.90876866	      0.30571284	     27.48687717	     -8.83911222	    -11.28529169	    -61.52838220	      8.06080861	      3.43054768	      9.35345211	     11.38036278	      8.46585434	     -0.83980361	    -12.43293216	      7.57669484	     -5.48632399	      4.67142553	      3.38189949	     -8.80523443	     -0.44720065
      1.54616667	     -6.89203980	      3.76336027	      2.70459778	      0.43586056	      0.90954976	      0.30517662	     27.82009963	     -8.72521954	    -11.52759242	    -60.52326864	      8.30319761	      3.18070773	      9.24405272	     10.70368321	      8.34965451	     -0.48635760	    -11.92258541	      7.51623273	     -5.36469176	      4.67441393	      3.27157082	     -8.68105900	     -0.75771246
      1.55033333	     -6.81527093	      3.65674979	      3.01688658	      0.44080381	      0.91026371	      0.30466492	     28.15701589	     -8.64928408	    -11.71312600	    -59.51245861	      8.47873127	      2.92515755	      8.98105053	      9.98117797	      8.28178227	     -0.06326001	    -11.32838285	      7.45958597	     -5.40669742	      4.67779778	      3.15336203	     -8.60405704	     -1.31724895
      1.55450000	     -6.74264781	      3.50978244	      3.34636002	      0.44576431	      0.91093681	      0.30414443	     28.46218466	     -8.54246831	    -11.94834576	    -58.43081884	      8.62389916	      2.66201154	      8.87751161	      9.30737989	      8.15035179	      0.24733536	    -10.82359240	      7.43822845	     -5.24534363	      4.68142824	      3.06104544	     -8.45296313	     -1.53176766
